<?xml version="1.0" encoding="utf-8"?>
<!-- Generator: Adobe Illustrator 23.0.1, SVG Export Plug-In . SVG Version: 6.00 Build 0)  -->
<svg version="1.1" id="Layer_1" xmlns="http://www.w3.org/2000/svg" xmlns:xlink="http://www.w3.org/1999/xlink" x="0px" y="0px"
	 viewBox="0 0 104.6 51.2" style="enable-background:new 0 0 104.6 51.2;" xml:space="preserve">
<style type="text/css">
	.st0{fill:#FF3C42;}
</style>
<path class="st0" d="M78.8,24.5L91.2,1.6l12.3,22.9h-5.2l-7.1-14.1L84,24.5H78.8z M70.8,24.5V6.3H57.6v18.2H53V2.2h22.3v22.3H70.8z
	 M44.4,13.4c0-4.6-3.5-8.3-7.9-8.3s-7.9,3.7-7.9,8.3s3.5,8.4,7.9,8.4S44.4,18,44.4,13.4 M48.8,13.4c0,6.7-5.6,12.3-12.4,12.3
	S24,20.2,24,13.4c0-6.7,5.6-12.3,12.4-12.3S48.8,6.6,48.8,13.4 M5.5,13.3L16.8,2.2h5.7L11.2,13.3l12.1,11.2h-5.9L5.5,13.3z M1,2.2
	h4.5v22.3H1V2.2z"/>
<rect x="9.8" y="18.7" transform="matrix(6.123234e-17 -1 1 6.123234e-17 -17.7909 41.8172)" class="st0" width="4.5" height="22.3"/>
<rect x="61.9" y="18.7" transform="matrix(6.123234e-17 -1 1 6.123234e-17 34.3459 93.9541)" class="st0" width="4.5" height="22.3"/>
<rect x="61.9" y="36.5" transform="matrix(6.123234e-17 -1 1 6.123234e-17 16.5459 111.7541)" class="st0" width="4.5" height="22.3"/>
<rect x="9.8" y="27.6" class="st0" width="4.5" height="22.3"/>
<rect x="61.9" y="27.6" class="st0" width="4.5" height="22.3"/>
<rect x="34.2" y="18.7" transform="matrix(6.123234e-17 -1 1 6.123234e-17 6.6959 66.3041)" class="st0" width="4.5" height="22.3"/>
<rect x="32" y="31.3" transform="matrix(6.123234e-17 -1 1 6.123234e-17 -5.9733 74.4733)" class="st0" width="4.5" height="17.8"/>
<rect x="25.4" y="27.6" class="st0" width="4.5" height="22.3"/>
<polygon class="st0" points="43.2,45.4 47.7,45.4 47.7,42.5 43.2,38 "/>
<polygon class="st0" points="43.2,27.6 43.2,42.5 47.7,38 47.7,27.6 "/>
<rect x="43.2" y="44.7" class="st0" width="4.5" height="5.1"/>
<rect x="88.9" y="18.7" transform="matrix(6.123234e-17 -1 1 6.123234e-17 61.3459 120.9541)" class="st0" width="4.5" height="22.3"/>
<rect x="86.6" y="31.3" transform="matrix(6.123234e-17 -1 1 6.123234e-17 48.6766 129.1233)" class="st0" width="4.5" height="17.8"/>
<rect x="80" y="27.6" class="st0" width="4.5" height="22.3"/>
<rect x="97.8" y="27.6" class="st0" width="4.5" height="14.9"/>
</svg>
